# xmcd
#
# Track frame offsets:
# 150
# 2622
# 27064
# 46508
# 77408
# 94889
# 118213
# 129037
# 162139
# 180874
# 192948
# 215004
# 240361
# 259925
# 289925
#
# Disc length: 4082 seconds
#
#
# Revision: 3
# Processed by: cddbd v1.5PL3 Copyright (c) Steve Scherf et al.
# Submitted via: FreeRIP 2.60 
#
DISCID=b40ff00f
DTITLE=Youngblood Brass Band - Center:Level:Roar
DYEAR=2003
DGENRE=Jazz+Funk
TTITLE0=To Come Together
TTITLE1=Round One
TTITLE2=Culture:Envy:War
TTITLE3=Brooklyn
TTITLE4=Diaspora
TTITLE5=Human Nature
TTITLE6=Thursday
TTITLE7=The Movement
TTITLE8=Avalanche
TTITLE9=Nate McCavish Handbills For No Man
TTITLE10=Camouflage
TTITLE11=Is An Elegy
TTITLE12=Under Your Influence
TTITLE13=VIP
TTITLE14=And Leave Alone
EXTD=YEAR: 2003
EXTT0=
EXTT1=
EXTT2=
EXTT3=
EXTT4=
EXTT5=
EXTT6=
EXTT7=
EXTT8=
EXTT9=
EXTT10=
EXTT11=
EXTT12=
EXTT13=
EXTT14=
PLAYORDER=
